<svg id="Layer_2" data-name="Layer 2" xmlns="http://www.w3.org/2000/svg" viewBox="0 0 250 250"><defs><style>.cls-1{fill:#1e1e1e;}</style></defs><path class="cls-1" d="M245.88,152.52,234,65.84A72.25,72.25,0,0,0,152.52,4.12L65.84,16.05A72.25,72.25,0,0,0,4.12,97.48l11.93,86.68a72.25,72.25,0,0,0,81.43,61.72L184.16,234A72.25,72.25,0,0,0,245.88,152.52Zm-104.6,41.62c-18-1.84-25.87-17.17-49.47-20.8-14.68-2.26-27.45,1.25-35.73,4.42,21.21-23.56,37.76-28.08,49.47-27.24,21.82,1.56,34.1,22.23,62.76,21.87A62.94,62.94,0,0,0,190.44,168C168.53,191.59,152.22,195.26,141.28,194.14Zm3.47-47.37c-18-1.85-25.87-17.18-49.47-20.8-14.68-2.26-27.44,1.25-35.72,4.42,21.2-23.56,37.76-28.08,49.47-27.24,21.82,1.56,34.1,22.23,62.76,21.87a63,63,0,0,0,22.13-4.43C172,144.22,155.69,147.89,144.75,146.77Zm0-47.37c-18-1.85-25.87-17.18-49.47-20.81C80.6,76.34,67.84,79.84,59.56,83,80.76,59.46,97.32,54.93,109,55.77c21.82,1.56,34.1,22.24,62.76,21.88a63.22,63.22,0,0,0,22.13-4.43C172,96.84,155.69,100.52,144.75,99.4Z"/></svg>